<svg xmlns="http://www.w3.org/2000/svg" viewBox="0 0 560 320" width="560" height="320" font-family="sans-serif" font-size="13">
  <defs>
    <marker id="cg-arr-1" viewBox="0 0 10 10" refX="9" refY="5" markerWidth="8" markerHeight="8" orient="auto-start-reverse">
      <path d="M0,0 L10,5 L0,10 z" fill="#d62728"/>
    </marker>
    <marker id="cg-arr-2" viewBox="0 0 10 10" refX="9" refY="5" markerWidth="8" markerHeight="8" orient="auto-start-reverse">
      <path d="M0,0 L10,5 L0,10 z" fill="#9467bd"/>
    </marker>
    <marker id="cg-arr-t" viewBox="0 0 10 10" refX="9" refY="5" markerWidth="8" markerHeight="8" orient="auto-start-reverse">
      <path d="M0,0 L10,5 L0,10 z" fill="#1f77b4"/>
    </marker>
  </defs>

  <!-- surface 1 (drawn as a tilted parallelogram) -->
  <polygon points="60,180 240,90 380,150 200,240" fill="#fde2e2" stroke="#d62728" stroke-width="1.5" opacity="0.7"/>
  <text x="80" y="200" fill="#a01818" font-size="12" font-style="italic">h₁(x) = 0</text>

  <!-- surface 2 (other tilted parallelogram, intersecting surface 1) -->
  <polygon points="160,60 440,90 520,240 240,210" fill="#ece6f5" stroke="#9467bd" stroke-width="1.5" opacity="0.65"/>
  <text x="450" y="115" fill="#5e3b8a" font-size="12" font-style="italic">h₂(x) = 0</text>

  <!-- intersection curve (drawn as a straight line through both shapes) -->
  <line x1="200" y1="225" x2="380" y2="135" stroke="#1f77b4" stroke-width="2.5"/>
  <text x="135" y="260" fill="#1f77b4" font-size="12" font-style="italic">feasible set: h₁ = 0 AND h₂ = 0</text>

  <!-- point on the intersection -->
  <circle cx="290" cy="180" r="5" fill="#222"/>
  <text x="295" y="200" fill="#222" font-size="11">x</text>

  <!-- gradient of h1 (perpendicular to surface 1 — roughly upward-left) -->
  <line x1="290" y1="180" x2="240" y2="120" stroke="#d62728" stroke-width="2.4" marker-end="url(#cg-arr-1)"/>
  <text x="200" y="115" fill="#d62728" font-weight="bold">∇h₁</text>

  <!-- gradient of h2 (perpendicular to surface 2 — roughly upward-right) -->
  <line x1="290" y1="180" x2="370" y2="100" stroke="#9467bd" stroke-width="2.4" marker-end="url(#cg-arr-2)"/>
  <text x="378" y="95" fill="#9467bd" font-weight="bold">∇h₂</text>

  <!-- tangent direction (along the intersection curve, both ways) -->
  <line x1="290" y1="180" x2="350" y2="150" stroke="#1f77b4" stroke-width="2.4" marker-end="url(#cg-arr-t)"/>
  <line x1="290" y1="180" x2="230" y2="210" stroke="#1f77b4" stroke-width="2.4" marker-end="url(#cg-arr-t)"/>

  <!-- Side panel: explanatory text -->
  <g transform="translate(20,275)">
    <text fill="#444" font-size="11">
      <tspan x="0" dy="0">Tangent space at x: directions v with</tspan>
      <tspan x="0" dy="14">∇h₁(x)·v = 0  AND  ∇h₂(x)·v = 0</tspan>
      <tspan x="320" dy="-14">Normal space at x: span(∇h₁, ∇h₂)  ⊂  ℝ³</tspan>
      <tspan x="320" dy="14">(a 2D plane of "constraint pressures")</tspan>
    </text>
  </g>
</svg>
